<svg id="Layer_1" data-name="Layer 1" xmlns="http://www.w3.org/2000/svg" viewBox="0 0 50 50"><defs><style>.cls-1{fill:#606060;}.cls-2{fill:#fff;}</style></defs><title>lg2-icons</title><circle class="cls-1" cx="25" cy="25" r="24"/><path class="cls-2" d="M22.23,40a1,1,0,1,1,0-2H35V12H23v6.84a1,1,0,1,1-2,0V11.2A1.33,1.33,0,0,1,22.23,10H36.69c0.59,0,.31.6,0.31,1.2V38.65c0,0.57.22,1.35-.31,1.35H22.23Z"/><path class="cls-2" d="M13.25,40A1.51,1.51,0,0,1,12,38.65V21.9a1.19,1.19,0,0,1,.85-1l14.49-4.39a1.15,1.15,0,0,1,.34-0.06c0.21,0,.06.07,0.23,0.21a0.94,0.94,0,0,1,.09.86V38.65a1.57,1.57,0,0,1,.11.88C27.92,39.74,28,40,27.71,40H13.25ZM14,22.64V38H26V19Z"/><path class="cls-2" d="M11.27,40a1,1,0,1,1,0-2H38.73a1,1,0,0,1,1.07,1,1.08,1.08,0,0,1-1.14,1H11.27Z"/><path class="cls-2" d="M20,39.72a1,1,0,0,1-1-1.07V32.72a1,1,0,1,1,2,0v5.92A1.07,1.07,0,0,1,20,39.72Z"/></svg>